# Blender v2.93.4 OBJ File: 'jeep.blend'
# www.blender.org
mtllib ground.mtl
o Grid_Grid.001
v -9.101057 0.000000 9.101057
v -7.280846 0.000000 9.101057
v -5.460634 0.000000 9.101057
v -3.640423 0.000000 9.101057
v -1.820211 0.000000 9.101057
v 0.000000 0.000000 9.101057
v 1.820212 0.000000 9.101057
v 3.640423 0.000000 9.101057
v 5.460634 0.000000 9.101057
v 7.280846 0.000000 9.101057
v 9.101057 0.000000 9.101057
v -9.101057 0.000000 7.280846
v -7.280846 0.000000 7.280846
v -5.460634 0.000000 7.280846
v -3.640423 0.000000 7.280846
v -1.820211 0.000000 7.280846
v 0.000000 0.000000 7.280846
v 1.820212 0.000000 7.280846
v 3.640423 0.000000 7.280846
v 5.460634 0.000000 7.280846
v 7.280846 0.000000 7.280846
v 9.101057 0.000000 7.280846
v -9.101057 0.000000 5.460634
v -7.280846 0.000000 5.460634
v -5.460634 0.000000 5.460634
v -3.640423 0.000000 5.460634
v -1.820211 0.000000 5.460634
v 0.000000 0.000000 5.460634
v 1.820212 0.000000 5.460634
v 3.640423 0.000000 5.460634
v 5.460634 0.000000 5.460634
v 7.280846 0.000000 5.460634
v 9.101057 0.000000 5.460634
v -9.101057 0.000000 3.640423
v -7.280846 0.000000 3.640423
v -5.460634 0.000000 3.640423
v -3.640423 0.000000 3.640423
v -1.820211 0.000000 3.640423
v 0.000000 0.000000 3.640423
v 1.820212 0.000000 3.640423
v 3.640423 0.000000 3.640423
v 5.460634 0.000000 3.640423
v 7.280846 0.000000 3.640423
v 9.101057 0.000000 3.640423
v -9.101057 0.000000 1.820211
v -7.280846 0.000000 1.820211
v -5.460634 0.000000 1.820211
v -3.640423 0.000000 1.820211
v -1.820211 0.000000 1.820211
v 0.000000 0.000000 1.820211
v 1.820212 0.000000 1.820211
v 3.640423 0.000000 1.820211
v 5.460634 0.000000 1.820211
v 7.280846 0.000000 1.820211
v 9.101057 0.000000 1.820211
v -9.101057 0.000000 0.000000
v -7.280846 0.000000 0.000000
v -5.460634 0.000000 0.000000
v -3.640423 0.000000 0.000000
v -1.820211 0.000000 0.000000
v 0.000000 0.000000 0.000000
v 1.820212 0.000000 0.000000
v 3.640423 0.000000 0.000000
v 5.460634 0.000000 0.000000
v 7.280846 0.000000 0.000000
v 9.101057 0.000000 0.000000
v -9.101057 0.000000 -1.820212
v -7.280846 0.000000 -1.820212
v -5.460634 0.000000 -1.820212
v -3.640423 0.000000 -1.820212
v -1.820211 0.000000 -1.820212
v 0.000000 0.000000 -1.820212
v 1.820212 0.000000 -1.820212
v 3.640423 0.000000 -1.820212
v 5.460634 0.000000 -1.820212
v 7.280846 0.000000 -1.820212
v 9.101057 0.000000 -1.820212
v -9.101057 0.000000 -3.640423
v -7.280846 0.000000 -3.640423
v -5.460634 0.000000 -3.640423
v -3.640423 0.000000 -3.640423
v -1.820211 0.000000 -3.640423
v 0.000000 0.000000 -3.640423
v 1.820212 0.000000 -3.640423
v 3.640423 0.000000 -3.640423
v 5.460634 0.000000 -3.640423
v 7.280846 0.000000 -3.640423
v 9.101057 0.000000 -3.640423
v -9.101057 0.000000 -5.460634
v -7.280846 0.000000 -5.460634
v -5.460634 0.000000 -5.460634
v -3.640423 0.000000 -5.460634
v -1.820211 0.000000 -5.460634
v 0.000000 0.000000 -5.460634
v 1.820212 0.000000 -5.460634
v 3.640423 0.000000 -5.460634
v 5.460634 0.000000 -5.460634
v 7.280846 0.000000 -5.460634
v 9.101057 0.000000 -5.460634
v -9.101057 0.000000 -7.280846
v -7.280846 0.000000 -7.280846
v -5.460634 0.000000 -7.280846
v -3.640423 0.000000 -7.280846
v -1.820211 0.000000 -7.280846
v 0.000000 0.000000 -7.280846
v 1.820212 0.000000 -7.280846
v 3.640423 0.000000 -7.280846
v 5.460634 0.000000 -7.280846
v 7.280846 0.000000 -7.280846
v 9.101057 0.000000 -7.280846
v -9.101057 0.000000 -9.101057
v -7.280846 0.000000 -9.101057
v -5.460634 0.000000 -9.101057
v -3.640423 0.000000 -9.101057
v -1.820211 0.000000 -9.101057
v 0.000000 0.000000 -9.101057
v 1.820212 0.000000 -9.101057
v 3.640423 0.000000 -9.101057
v 5.460634 0.000000 -9.101057
v 7.280846 0.000000 -9.101057
v 9.101057 0.000000 -9.101057
vn 0.0000 1.0000 0.0000
usemtl grey
s off
f 2//1 12//1 1//1
f 4//1 14//1 3//1
f 6//1 16//1 5//1
f 8//1 18//1 7//1
f 10//1 20//1 9//1
f 14//1 24//1 13//1
f 16//1 26//1 15//1
f 18//1 28//1 17//1
f 20//1 30//1 19//1
f 22//1 32//1 21//1
f 24//1 34//1 23//1
f 26//1 36//1 25//1
f 28//1 38//1 27//1
f 30//1 40//1 29//1
f 32//1 42//1 31//1
f 36//1 46//1 35//1
f 38//1 48//1 37//1
f 40//1 50//1 39//1
f 42//1 52//1 41//1
f 44//1 54//1 43//1
f 46//1 56//1 45//1
f 48//1 58//1 47//1
f 50//1 60//1 49//1
f 52//1 62//1 51//1
f 54//1 64//1 53//1
f 58//1 68//1 57//1
f 60//1 70//1 59//1
f 62//1 72//1 61//1
f 64//1 74//1 63//1
f 66//1 76//1 65//1
f 68//1 78//1 67//1
f 70//1 80//1 69//1
f 72//1 82//1 71//1
f 74//1 84//1 73//1
f 76//1 86//1 75//1
f 80//1 90//1 79//1
f 82//1 92//1 81//1
f 84//1 94//1 83//1
f 86//1 96//1 85//1
f 88//1 98//1 87//1
f 90//1 100//1 89//1
f 92//1 102//1 91//1
f 94//1 104//1 93//1
f 96//1 106//1 95//1
f 98//1 108//1 97//1
f 102//1 112//1 101//1
f 104//1 114//1 103//1
f 106//1 116//1 105//1
f 108//1 118//1 107//1
f 110//1 120//1 109//1
f 2//1 13//1 12//1
f 4//1 15//1 14//1
f 6//1 17//1 16//1
f 8//1 19//1 18//1
f 10//1 21//1 20//1
f 14//1 25//1 24//1
f 16//1 27//1 26//1
f 18//1 29//1 28//1
f 20//1 31//1 30//1
f 22//1 33//1 32//1
f 24//1 35//1 34//1
f 26//1 37//1 36//1
f 28//1 39//1 38//1
f 30//1 41//1 40//1
f 32//1 43//1 42//1
f 36//1 47//1 46//1
f 38//1 49//1 48//1
f 40//1 51//1 50//1
f 42//1 53//1 52//1
f 44//1 55//1 54//1
f 46//1 57//1 56//1
f 48//1 59//1 58//1
f 50//1 61//1 60//1
f 52//1 63//1 62//1
f 54//1 65//1 64//1
f 58//1 69//1 68//1
f 60//1 71//1 70//1
f 62//1 73//1 72//1
f 64//1 75//1 74//1
f 66//1 77//1 76//1
f 68//1 79//1 78//1
f 70//1 81//1 80//1
f 72//1 83//1 82//1
f 74//1 85//1 84//1
f 76//1 87//1 86//1
f 80//1 91//1 90//1
f 82//1 93//1 92//1
f 84//1 95//1 94//1
f 86//1 97//1 96//1
f 88//1 99//1 98//1
f 90//1 101//1 100//1
f 92//1 103//1 102//1
f 94//1 105//1 104//1
f 96//1 107//1 106//1
f 98//1 109//1 108//1
f 102//1 113//1 112//1
f 104//1 115//1 114//1
f 106//1 117//1 116//1
f 108//1 119//1 118//1
f 110//1 121//1 120//1
usemtl white
f 3//1 13//1 2//1
f 5//1 15//1 4//1
f 7//1 17//1 6//1
f 9//1 19//1 8//1
f 11//1 21//1 10//1
f 13//1 23//1 12//1
f 15//1 25//1 14//1
f 17//1 27//1 16//1
f 19//1 29//1 18//1
f 21//1 31//1 20//1
f 25//1 35//1 24//1
f 27//1 37//1 26//1
f 29//1 39//1 28//1
f 31//1 41//1 30//1
f 33//1 43//1 32//1
f 35//1 45//1 34//1
f 37//1 47//1 36//1
f 39//1 49//1 38//1
f 41//1 51//1 40//1
f 43//1 53//1 42//1
f 47//1 57//1 46//1
f 49//1 59//1 48//1
f 51//1 61//1 50//1
f 53//1 63//1 52//1
f 55//1 65//1 54//1
f 57//1 67//1 56//1
f 59//1 69//1 58//1
f 61//1 71//1 60//1
f 63//1 73//1 62//1
f 65//1 75//1 64//1
f 69//1 79//1 68//1
f 71//1 81//1 70//1
f 73//1 83//1 72//1
f 75//1 85//1 74//1
f 77//1 87//1 76//1
f 79//1 89//1 78//1
f 81//1 91//1 80//1
f 83//1 93//1 82//1
f 85//1 95//1 84//1
f 87//1 97//1 86//1
f 91//1 101//1 90//1
f 93//1 103//1 92//1
f 95//1 105//1 94//1
f 97//1 107//1 96//1
f 99//1 109//1 98//1
f 101//1 111//1 100//1
f 103//1 113//1 102//1
f 105//1 115//1 104//1
f 107//1 117//1 106//1
f 109//1 119//1 108//1
f 3//1 14//1 13//1
f 5//1 16//1 15//1
f 7//1 18//1 17//1
f 9//1 20//1 19//1
f 11//1 22//1 21//1
f 13//1 24//1 23//1
f 15//1 26//1 25//1
f 17//1 28//1 27//1
f 19//1 30//1 29//1
f 21//1 32//1 31//1
f 25//1 36//1 35//1
f 27//1 38//1 37//1
f 29//1 40//1 39//1
f 31//1 42//1 41//1
f 33//1 44//1 43//1
f 35//1 46//1 45//1
f 37//1 48//1 47//1
f 39//1 50//1 49//1
f 41//1 52//1 51//1
f 43//1 54//1 53//1
f 47//1 58//1 57//1
f 49//1 60//1 59//1
f 51//1 62//1 61//1
f 53//1 64//1 63//1
f 55//1 66//1 65//1
f 57//1 68//1 67//1
f 59//1 70//1 69//1
f 61//1 72//1 71//1
f 63//1 74//1 73//1
f 65//1 76//1 75//1
f 69//1 80//1 79//1
f 71//1 82//1 81//1
f 73//1 84//1 83//1
f 75//1 86//1 85//1
f 77//1 88//1 87//1
f 79//1 90//1 89//1
f 81//1 92//1 91//1
f 83//1 94//1 93//1
f 85//1 96//1 95//1
f 87//1 98//1 97//1
f 91//1 102//1 101//1
f 93//1 104//1 103//1
f 95//1 106//1 105//1
f 97//1 108//1 107//1
f 99//1 110//1 109//1
f 101//1 112//1 111//1
f 103//1 114//1 113//1
f 105//1 116//1 115//1
f 107//1 118//1 117//1
f 109//1 120//1 119//1
